<svg xmlns="http://www.w3.org/2000/svg" viewBox="0 0 256 256" width="256" height="256" role="img" aria-label="LOFTUS AUTO CITY logo">
<title>LOFTUS AUTO CITY</title>
<defs>
<rect id="s" x="22" y="22" width="212" height="212" rx="36"/>
<linearGradient id="g" x1="0" y1="0" x2="0" y2="1"><stop offset="0" stop-color="#c06f30"/><stop offset="1" stop-color="#893f07"/></linearGradient>
<clipPath id="c"><use href="#s"/></clipPath>
</defs>
<use href="#s" fill="url(#g)"/>
<g clip-path="url(#c)"><ellipse cx="128" cy="60" rx="150" ry="92" fill="#ffffff" opacity="0.08"/></g>
<g transform="translate(128 128) scale(0.9) translate(-128 -128)"><use href="#s" fill="none" stroke="#CDE7B0" stroke-width="2"/></g>
<use href="#s" fill="none" stroke="#7e3a06" stroke-width="4"/>
<path d="M100 100A28 28 0 0 1 156 100Z" fill="#CDE7B0"/><g stroke="#CDE7B0" stroke-width="6" stroke-linecap="round"><path d="M128 58V44"/><path d="M102 66L92 52"/><path d="M154 66L164 52"/></g>
<text x="129" y="160" text-anchor="middle" font-family="'Segoe UI', Roboto, 'Helvetica Neue', Arial, sans-serif" font-size="58" font-weight="800" fill="#7e3a06" opacity="0.45">LA</text>
<text x="128" y="158" text-anchor="middle" font-family="'Segoe UI', Roboto, 'Helvetica Neue', Arial, sans-serif" font-size="58" font-weight="800" fill="#ffffff">LA</text>
<path d="M16 168l-8 12 8 12z" fill="#7e3a06"/>
<path d="M240 168l8 12-8 12z" fill="#7e3a06"/>
<rect x="16" y="168" width="224" height="36" fill="#CDE7B0" stroke="#7e3a06" stroke-width="2"/>
<text x="128" y="192" text-anchor="middle" font-family="'Segoe UI', Roboto, 'Helvetica Neue', Arial, sans-serif" font-size="16" font-weight="700" fill="#1b1f24">LOFTUS AUTO CITY</text>
<text x="128" y="224" text-anchor="middle" font-family="'Segoe UI', Roboto, 'Helvetica Neue', Arial, sans-serif" font-size="9" font-weight="600" letter-spacing="2" fill="#ffffff" opacity="0.9">TAUNTON</text>
</svg>
