<svg xmlns="http://www.w3.org/2000/svg" viewBox="0 0 256 256" width="256" height="256" role="img" aria-label="MERCEDES-BENZ OF HONOLULU logo">
<title>MERCEDES-BENZ OF HONOLULU</title>
<defs>
<rect id="s" x="22" y="22" width="212" height="212" rx="36"/>
<linearGradient id="g" x1="0" y1="0" x2="0" y2="1"><stop offset="0" stop-color="#4f826b"/><stop offset="1" stop-color="#22513c"/></linearGradient>
<clipPath id="c"><use href="#s"/></clipPath>
</defs>
<use href="#s" fill="url(#g)"/>
<g clip-path="url(#c)"><ellipse cx="128" cy="60" rx="150" ry="92" fill="#ffffff" opacity="0.08"/></g>
<g transform="translate(128 128) scale(0.9) translate(-128 -128)"><use href="#s" fill="none" stroke="#9AD1D4" stroke-width="2"/></g>
<use href="#s" fill="none" stroke="#204a37" stroke-width="4"/>
<path d="M128 96C106 66 84 62 70 66C90 72 104 84 112 100Z" fill="#9AD1D4"/><path d="M128 96C150 66 172 62 186 66C166 72 152 84 144 100Z" fill="#9AD1D4"/><circle cx="128" cy="82" r="7" fill="#9AD1D4"/>
<text x="129" y="160" text-anchor="middle" font-family="'Segoe UI', Roboto, 'Helvetica Neue', Arial, sans-serif" font-size="58" font-weight="800" fill="#204a37" opacity="0.45">MH</text>
<text x="128" y="158" text-anchor="middle" font-family="'Segoe UI', Roboto, 'Helvetica Neue', Arial, sans-serif" font-size="58" font-weight="800" fill="#ffffff">MH</text>
<path d="M16 168l-8 12 8 12z" fill="#204a37"/>
<path d="M240 168l8 12-8 12z" fill="#204a37"/>
<rect x="16" y="168" width="224" height="36" fill="#9AD1D4" stroke="#204a37" stroke-width="2"/>
<text x="128" y="192" text-anchor="middle" font-family="'Segoe UI', Roboto, 'Helvetica Neue', Arial, sans-serif" font-size="16" font-weight="700" fill="#1b1f24" textLength="208" lengthAdjust="spacingAndGlyphs">MERCEDES-BENZ OF HONOLULU</text>
<text x="128" y="224" text-anchor="middle" font-family="'Segoe UI', Roboto, 'Helvetica Neue', Arial, sans-serif" font-size="9" font-weight="600" letter-spacing="2" fill="#ffffff" opacity="0.9">KAHULUI</text>
</svg>
